{
    "asset" : {
        "generator" : "Khronos glTF Blender I/O v1.2.75",
        "version" : "2.0"
    },
    "scene" : 0,
    "scenes" : [
        {
            "name" : "Scene",
            "nodes" : [
                2
            ]
        }
    ],
    "nodes" : [
        {
            "name" : "Camera.001",
            "rotation" : [
                0.1602192223072052,
                0.837095320224762,
                -0.4046676754951477,
                0.3314293920993805
            ],
            "translation" : [
                400.1130065917969,
                463.2640075683594,
                -431.0780334472656
            ]
        },
        {
            "mesh" : 0,
            "name" : "LOD3spShape",
            "translation" : [
                -12.979472160339355,
                -87.11524963378906,
                3.708421230316162
            ]
        },
        {
            "children" : [
                0,
                1
            ],
            "name" : "Node_0",
            "scale" : [
                0.009999999776482582,
                0.009999999776482582,
                0.009999999776482582
            ]
        }
    ],
    "materials" : [
        {
            "emissiveFactor" : [
                0,
                0,
                0
            ],
            "name" : "blinn3-fx",
            "pbrMetallicRoughness" : {
                "baseColorTexture" : {
                    "index" : 0,
                    "texCoord" : 0
                },
                "metallicFactor" : 0,
                "roughnessFactor" : 1
            }
        }
    ],
    "meshes" : [
        {
            "name" : "LOD3spShape",
            "primitives" : [
                {
                    "attributes" : {
                        "POSITION" : 0,
                        "NORMAL" : 1,
                        "TEXCOORD_0" : 2
                    },
                    "indices" : 3,
                    "material" : 0
                }
            ]
        }
    ],
    "textures" : [
        {
            "source" : 0
        }
    ],
    "images" : [
        {
            "bufferView" : 4,
            "mimeType" : "image/png",
            "name" : "DuckCM"
        }
    ],
    "accessors" : [
        {
            "bufferView" : 0,
            "componentType" : 5126,
            "count" : 2662,
            "max" : [
                96.17990112304688,
                163.97000122070312,
                53.92519760131836
            ],
            "min" : [
                -69.29850006103516,
                9.929369926452637,
                -61.32819747924805
            ],
            "type" : "VEC3"
        },
        {
            "bufferView" : 1,
            "componentType" : 5126,
            "count" : 2662,
            "type" : "VEC3"
        },
        {
            "bufferView" : 2,
            "componentType" : 5126,
            "count" : 2662,
            "type" : "VEC2"
        },
        {
            "bufferView" : 3,
            "componentType" : 5123,
            "count" : 12636,
            "type" : "SCALAR"
        }
    ],
    "bufferViews" : [
        {
            "buffer" : 0,
            "byteLength" : 31944,
            "byteOffset" : 0
        },
        {
            "buffer" : 0,
            "byteLength" : 31944,
            "byteOffset" : 31944
        },
        {
            "buffer" : 0,
            "byteLength" : 21296,
            "byteOffset" : 63888
        },
        {
            "buffer" : 0,
            "byteLength" : 25272,
            "byteOffset" : 85184
        },
        {
            "buffer" : 0,
            "byteLength" : 16302,
            "byteOffset" : 110456
        }
    ],
    "buffers" : [
        {
            "byteLength" : 126760,
            "uri" : "data:application/octet-stream;base64,"
        }
    ]
}
